<svg version="1" xmlns="http://www.w3.org/2000/svg" width="693.333" height="693.333" viewBox="0 0 520.000000 520.000000"><path d="M0 260v260h520V0H0v260zM275.2 64c6.4 3.2 13.3 10.2 16.6 17 2.3 4.7 2.7 6.7 2.7 14.5 0 7.9-.4 9.7-2.8 14.7-7.1 14.5-21.7 22.1-37.4 19.6-7.6-1.2-13.6-4.3-19-9.7-15.5-15.8-13.1-40.6 5.4-53.5 6.5-4.5 10.7-5.6 21.3-5.3 6.6.2 9.6.8 13.2 2.7zm111.2-.1c6.5 2.8 14.4 10.7 17.3 17 3.6 7.7 3.8 21.1.4 28.7-2.8 6.4-11.1 14.6-17.6 17.5-7.6 3.4-20.9 3.3-28.6-.3-7.2-3.3-13.4-9.4-16.7-16.7-3.7-7.7-3.8-21-.3-28.8 2.4-5.5 10.4-13.9 15.9-16.7 7.6-3.9 21.7-4.3 29.6-.7zm-231.9.5c9.6 2.5 14.8 6.2 20.3 14.2 3.2 4.6 5.5 14.9 4.8 20.8-2.2 18.6-21.3 31.9-39.4 27.2-24.9-6.4-32.9-34.6-15.3-53.9 3.2-3.6 9.1-6.7 15.6-8.3 6.6-1.6 8.1-1.6 14 0z"/></svg>